<svg width="24" height="24" viewBox="0 0 24 24" fill="none" xmlns="http://www.w3.org/2000/svg">
<path fill-rule="evenodd" clip-rule="evenodd" d="M9.26953 11.6953H10.4062L11.25 8.01562H12.7617L13.6055 11.6953H14.748L15.5039 8.01562H17.1211L16.2539 11.6953H17.2734V12.8203H15.9844L15.1172 16.5H13.4062L12.5684 12.8203H11.4434L10.6055 16.5H8.89453L8.02734 12.8203H6.73828V11.6953H7.75781L6.89062 8.01562H8.50781L9.26953 11.6953ZM14.168 14.1562H14.2383L14.5137 12.8203H13.8633L14.168 14.1562ZM9.77344 14.1445H9.84375L10.1484 12.8203H9.49805L9.77344 14.1445ZM11.7012 11.6953H12.3105L12.0352 10.4766H11.9766L11.7012 11.6953Z" fill="black"/>
<path fill-rule="evenodd" clip-rule="evenodd" d="M12 2C17.5228 2 22 6.47715 22 12C22 17.5228 17.5228 22 12 22C6.47715 22 2 17.5228 2 12C2 6.47715 6.47715 2 12 2ZM12 4C7.58172 4 4 7.58172 4 12C4 16.4183 7.58172 20 12 20C16.4183 20 20 16.4183 20 12C20 7.58172 16.4183 4 12 4Z" fill="black"/>
</svg>
