<svg width="32" height="32" viewBox="0 0 32 32" fill="none" xmlns="http://www.w3.org/2000/svg">
<path d="M8.59712 10.6259C9.01625 6.85376 12.2047 4 16 4V4C19.7953 4 22.9838 6.85376 23.4029 10.6259L23.7386 13.6475C23.7429 13.686 23.745 13.7053 23.7472 13.7243C23.9191 15.2226 24.4068 16.6674 25.1781 17.9633C25.1879 17.9798 25.1979 17.9964 25.2178 18.0297L25.9885 19.3142C26.6879 20.4798 27.0376 21.0627 26.9621 21.5411C26.9119 21.8595 26.748 22.1489 26.5009 22.3558C26.1295 22.6667 25.4498 22.6667 24.0904 22.6667H7.90964C6.55024 22.6667 5.87055 22.6667 5.49912 22.3558C5.25196 22.1489 5.08811 21.8595 5.03788 21.5411C4.96239 21.0627 5.31209 20.4798 6.01149 19.3142L6.78221 18.0297C6.80215 17.9964 6.81212 17.9798 6.82192 17.9633C7.59317 16.6674 8.08085 15.2226 8.25278 13.7243C8.25497 13.7053 8.25711 13.686 8.26139 13.6475L8.59712 10.6259Z" stroke="#616161" stroke-width="2"/>
<path d="M10.6666 22.6667C10.6666 23.367 10.8045 24.0606 11.0726 24.7076C11.3406 25.3547 11.7334 25.9427 12.2287 26.4379C12.7239 26.9331 13.3119 27.326 13.9589 27.594C14.606 27.862 15.2995 28 15.9999 28C16.7003 28 17.3938 27.862 18.0409 27.594C18.688 27.326 19.2759 26.9331 19.7712 26.4379C20.2664 25.9427 20.6593 25.3547 20.9273 24.7076C21.1953 24.0606 21.3333 23.367 21.3333 22.6667" stroke="#616161" stroke-width="2" stroke-linecap="round"/>
</svg>
