<svg width="32" height="32" viewBox="0 0 32 32" fill="none" xmlns="http://www.w3.org/2000/svg">
<path d="M7 9.52941H25M13.75 21.2941V14.2353M18.25 21.2941V14.2353M20.5 26H11.5C10.2574 26 9.25 24.9466 9.25 23.6471V10.7059C9.25 10.0561 9.75368 9.52941 10.375 9.52941H21.625C22.2463 9.52941 22.75 10.0561 22.75 10.7059V23.6471C22.75 24.9466 21.7426 26 20.5 26ZM13.75 9.52941H18.25C18.8713 9.52941 19.375 9.00269 19.375 8.35294V7.17647C19.375 6.52672 18.8713 6 18.25 6H13.75C13.1287 6 12.625 6.52672 12.625 7.17647V8.35294C12.625 9.00269 13.1287 9.52941 13.75 9.52941Z" stroke="#616161" stroke-width="2" stroke-linecap="round" stroke-linejoin="round"/>
</svg>
