<svg width="32" height="32" viewBox="0 0 32 32" fill="none" xmlns="http://www.w3.org/2000/svg">
<path d="M21.2822 17C24.3952 17 27.0003 19.4192 27 22.501V27C26.9999 27.5523 26.5513 28.0001 25.999 28C25.447 27.9997 25 27.5521 25 27V22.5C25 20.611 23.3805 19 21.2822 19H10.7178C8.6199 19.0002 7.0012 20.6112 7.00098 22.5L7 27C6.99993 27.5522 6.55223 28 6 28C5.44775 27.9999 5 27.5522 5 27L5.00098 22.499C5.00154 19.418 7.60558 17.0002 10.7178 17H21.2822ZM16 3C19.3137 3 22 5.68629 22 9C22 12.3137 19.3137 15 16 15C12.6863 15 10 12.3137 10 9C10 5.68629 12.6863 3 16 3ZM16 5C13.7909 5 12 6.79086 12 9C12 11.2091 13.7909 13 16 13C18.2091 13 20 11.2091 20 9C20 6.79086 18.2091 5 16 5Z" fill="#616161"/>
</svg>
